<svg xmlns="http://www.w3.org/2000/svg" id="Layer_2" viewBox="0 0 693.96 393.16"><defs><style>.cls-1{fill:#c86047;}</style></defs><g id="Layer_1-2"><g><path class="cls-1" d="M175.22,387.17c0-7.08-.05-13.86,.02-20.65,.06-5.8,.12-11.61,.45-17.39,.14-2.49,.53-5.14,1.55-7.38,1.97-4.34,2.58-8.82,2.63-13.48,.09-8.97,.03-17.96,.35-26.92,.23-6.69,1.26-13.36,1.39-20.04,.29-14.77,.2-29.54,.34-44.32,.12-11.77-.5-23.63,.78-35.28,1.51-13.75,1.37-27.45,1.81-41.31-.89-.11-1.49-.21-2.1-.26-5.22-.43-10.45-.79-15.65-1.36-.55-.06-1.36-1.31-1.39-2.04-.26-5.25-.43-10.51-.48-15.76-.07-7.25-.15-14.51,.04-21.76,.1-3.67,.67-7.34,1.3-10.96,.11-.65,1.49-1.51,2.32-1.54,4.8-.19,9.61-.28,14.42-.18,17.41,.36,34.82,.68,52.22,1.31,4.56,.16,9.08,1.36,13.62,2.08,1.86,.3,3.72,.85,5.58,.86,14.97,.07,29.94,.04,44.91,.04,4.13,0,5.31,.59,6.36,4.69,1.61,6.29,3,12.66,4.11,19.06,1.32,7.58,2.32,15.21,3.31,22.84,.41,3.14,.36,6.33,.62,9.48,.96,11.46,2.03,22.9,2.94,34.36,.51,6.41,.85,12.83,1.16,19.26,.59,12.03,.81,24.08,1.72,36.08,.86,11.28,2.69,22.49,3.57,33.78,.76,9.84,1.32,19.75,1.01,29.6-.43,14.03,2.6,27.52,4.62,41.22,1.28,8.72,.86,17.69,1.05,26.55,.01,.61-1.12,1.72-1.82,1.81-12.03,1.48-23.99,3.85-36.25,2.54-2.93-.31-3.75-1.67-3.82-4.07-.12-4.07-.2-8.15-.19-12.23,.03-15.5,.22-31.01,.08-46.51-.04-3.95-1.2-7.87-1.63-11.83-.76-7.01-1.52-14.03-1.95-21.07-.16-2.65-1.26-3.9-3.61-4.15-2.79-.29-5.61-.41-8.41-.44-14.06-.12-19.64-.1-33.7-.33-4.33-.07-8.65-.74-12.97-1.23-2.16-.25-3.22,.6-3.47,2.72-1.09,9.52-2.74,18.96-2.22,28.66,.4,7.4-.56,14.87-.27,22.28,.41,10.69-1.32,21.11-2.86,31.59-.5,3.4-.88,6.82-1.18,10.24-.21,2.44-1.67,3.21-3.8,3.3-1.45,.06-5.74,.26-7.18,.15-7.92-.63-21.5-1.33-29.34-2Zm47.13-229.59c-.12,.71-.23,1.05-.23,1.4-.1,10.33-.46,20.66-.19,30.97,.28,10.76,1.21,21.5,1.78,32.25,.41,7.77,.7,15.55,1.07,23.32,.07,1.44,.43,2.44,2.31,2.67,10.41,1.24,18.07,2.05,28.13,5.37,1.27,.42,2.67,.65,4.01,.62,6.25-.12,12.49-.28,18.73-.59,3.65-.18,3.96-.64,3.19-4.14-2.17-9.86-2.96-19.81-3.15-29.91-.22-11.4-1.12-22.76-.31-34.19,.47-6.67,.05-13.4-.14-20.11-.14-4.65-.69-5.06-5.24-5.27-.72-.03-1.45-.11-2.16-.21-9.15-1.34-18.3-2.52-27.58-1.99-.81,.05-1.62-.18-2.44-.18-6.86-.02-10.9,0-17.77,0Z"></path><path class="cls-1" d="M392.03,274.32c0,4.28-.34,8.05,.07,11.73,.99,8.99,3.69,24.05,5.05,33,.73,4.81,2.28,9.51,2.88,14.33,2.17,17.44,1.34,34.92,.38,52.39-.26,4.76-.43,4.45-5.11,5.56-9.59,2.28-28.87,1.96-38.57,1.51-3.77-.17-4.58-1.3-4.45-5.14,.23-6.78,.27-13.57,.65-20.34,.71-12.64,1.69-25.26,2.4-37.9,.27-4.86,.27-9.76,.1-14.62-.41-11.49-1.34-22.98-1.45-34.47-.26-25.84,.6-51.72-.54-77.51-.53-12.15,2.05-23.75,2.46-35.64,.55-16.03-.5-32.05-.04-48.08,.2-7.12,.28-7.22,7.19-9.15,7.69-2.15,26.83-2.63,34.74-2.67,12.52-.06,25.04-.28,37.56-.31,7.62-.02,15.24,.2,22.85,.29,1.17,.01,2.42,.1,3.52-.22,7.52-2.23,15.23-2.09,22.94-2.07,8.35,.02,16.69,.04,25.04-.07,1.94-.02,2.9,.64,3.02,2.53,.21,3.43,.63,6.87,.59,10.3-.09,8.61-.44,17.22-.55,25.83-.03,2.08-.79,3-2.79,3.09-4.25,.19-8.56,.08-12.75,.69-9.5,1.38-18.95,3.11-28.41,4.71-8.19,1.39-16.34,1.51-24.63,.51-6.9-.83-13.92-.84-20.9-.98-8.59-.17-17.18,.44-25.54-2.66-4.13-1.53-5.16-.49-5.52,3.87-.26,3.16-.44,6.33-.46,9.5-.18,25.56-.31,51.12-.45,76.68-.01,2.14,0,4.27,0,7.07,2.29-1.34,4.4-2.21,6.07-3.61,14.84-12.5,32.52-20.36,49.22-29.74,7.48-4.2,16.04-6.57,24.25-9.39,14.03-4.83,28.17-9.37,42.26-14.03,.94-.31,1.9-.59,3.34-1.03,.25,1.4,.68,2.66,.68,3.92-.06,11.33-.05,22.66-.37,33.98-.27,9.6-.21,19.29-1.63,28.74-1.49,9.95-1.46,19.85-1.58,29.81-.17,14.59-.12,29.19-.52,43.78-.1,3.7-1.56,7.37-2.45,11.04-.6,2.52-2.32,2.88-4.37,1.89-3.51-1.69-7.36-3-10.32-5.39-11.07-8.92-24.12-13.42-37.34-17.68-17.59-10.74-33.49-19.46-47.09-30.72-5.28-4.38-11.14-8.06-16.75-12.04-.57-.41-1.28-.63-2.69-1.3Z"></path><path class="cls-1" d="M581.77,232.13c3.07-1.96,5.84-3.81,8.68-5.53,5.11-3.09,10.28-6.08,15.41-9.14,10.89-6.49,21.87-12.83,32.6-19.58,7.19-4.52,14.89-7.8,22.76-10.84,5.9-2.28,11.77-4.66,17.68-6.93,3.39-1.3,3.82-1.23,4.48,2.17,1.2,6.21,2.4,12.46,2.9,18.75,.51,6.4,.01,12.87,.27,19.3,.25,6.32,.54,12.68,1.47,18.93,1.17,7.87,.05,15.47-1.04,23.21-.97,6.88-1.14,13.87-1.59,20.82-.78,12.1-1.52,24.2-2.23,36.3-.1,1.8-.88,2.27-2.44,1.65-3.45-1.36-7.13-2.36-10.28-4.23-10.06-5.94-20.3-11.69-29.76-18.51-8.38-6.05-16.45-12.32-25.9-16.79-11.69-5.52-22.99-11.87-34.46-17.85-.47-.24-.99-.38-1.87-.72-.21,1.38-.55,2.57-.56,3.77-.17,14.32-.57,28.65-.32,42.97,.2,11.49,1.27,22.97,1.81,34.46,.14,3.06,.08,6.21-.48,9.21-.54,2.85,.77,3.51,2.96,3.44,4.53-.14,9.06-.32,13.57-.74,12.36-1.15,24.72-2.39,37.06-3.68,6.76-.7,13.48-2.04,20.25-2.27,10.4-.36,20.83,.01,31.25,.02,1.75,0,2.49,.9,2.64,2.42,.29,2.88,.72,5.78,.65,8.66-.18,7.69-.62,15.38-.89,23.07-.07,2.14-1.29,2.79-3.12,2.97-12.16,1.2-24.25,3.35-36.56,2.69-6.66-.36-13.28-.18-19.99-1.3-6.67-1.12-13.71-.05-20.58,.07-3.9,.07-7.82,.47-11.69,.18-11.38-.86-34.04-2.02-45.41-2.98-2.5-.21-5.02-.03-7.94-.03,0-.77,0-1.72,0-2.66,0-13.42-.07-26.84,.03-40.26,.06-8.61,.37-17.21,.6-25.81,.37-13.58,.76-27.15,1.18-40.73,.69-22.64,1.35-45.28,2.15-67.92,.57-16.02,1.52-32.03,2-48.06,.32-10.96,0-21.94,.19-32.9,.14-7.97,.62-15.93,1.08-23.88,.04-.74,.92-1.68,1.65-2.07,.83-.44,1.93-.44,2.92-.48,1.99-.09,3.99-.09,5.99-.1,20.23-.14,51.76-.39,71.99-.39,20.05,0,40.09,.27,60.14,.31,2.49,0,2.98,1.4,2.96,3.22-.06,4.97-.28,9.93-.45,14.9-.25,7.52-.59,15.03-.7,22.55-.04,2.52-.86,3.67-3.44,3.66-8.34-.03-16.68-.08-25.02,.08-11.6,.21-23.19,.78-34.78,.86-11.54,.08-22.92-1.58-34.22-3.95-3.51-.74-7.2-.74-10.81-.81-.66-.01-1.8,1.19-1.94,1.97-.45,2.58-.74,5.22-.72,7.83,.13,17.58,.46,35.17,.51,52.75,.02,9.14-.39,18.27-.63,27.95Z"></path><path class="cls-1" d="M614.24,2.85c25.18-.18,50.17,1.52,75.95,3.48-3.43,5.05-5.94,9.85-9.48,13.72-6.37,6.98-12.39,14.05-17.09,22.35-3.23,5.7-7.68,10.72-11.8,15.88-4.85,6.08-9.9,12-14.96,17.9-.73,.85-1.99,1.75-3.01,1.76-10.52,.07-21.04-.05-31.55-.12-.7,0-1.41-.1-2.3-.16,4.76-24.98,9.48-49.81,14.24-74.82Z"></path><path class="cls-1" d="M273.09,35.26c-2.22,8.65-4.17,16.74-6.4,24.75-.84,3.03-2.32,5.88-3.51,8.81-.07,.17-.17,.32-.29,.46-1.78,2.06-10.56,.67-11.55-1.87-3.85-9.94-7.65-19.9-11.47-29.85-.22-.58-.48-1.15-1.21-1.7-.06,1.21-.2,2.41-.18,3.62,.13,8.07,.41,16.13,.41,24.2,0,3.88-.47,7.77-.78,11.65-.04,.48-.38,1.32-.64,1.34-3.16,.27-6.35,.75-9.47,.47-1.42-.13-2.38-1.8-2.3-3.8,.34-8.33,.31-16.67,.73-24.99,.27-5.41,1.28-10.79,1.6-16.21,.48-8.22,.72-16.47,.88-24.7,.04-2.06,.56-3.04,2.68-2.99,4.53,.12,9.06,.15,13.57,.39,.53,.03,1.32,1.09,1.44,1.77,.62,3.74,.68,7.62,1.65,11.25,1.5,5.62,2.33,11.27,3,17.04,.8,6.79,2.7,13.46,4.17,20.38,.26-.56,.55-1.02,.71-1.52,2.58-8.17,4.86-16.33,5.89-24.94,.77-6.43,.96-13.23,4.48-19.18,.76-1.28,.57-3.17,.65-4.79,.08-1.64,.68-2.65,2.43-2.47,4.04,.4,8.07,.86,12.11,1.32,.53,.06,1.05,.31,1.58,.39,4.09,.58,4.28,.57,4.23,4.78-.15,14.32-.49,28.63-.64,42.95-.08,7.71,.02,15.41,.15,23.12,.03,1.95-.51,2.74-2.56,2.82-3.43,.13-6.86,.54-10.28,.87-1.83,.18-2.78-.5-2.65-2.42,.3-4.5,.64-9.01,.89-13.51,.45-8.31,.86-16.63,1.23-24.94,.03-.67-.29-1.36-.55-2.48Z"></path><path class="cls-1" d="M176.51,17.81c-2.34-.11-4.67-.22-7.33-.34,0-4.8-.06-9.55,.08-14.3,.01-.52,1.07-1.4,1.71-1.46,2.78-.28,5.6-.23,8.39-.46,9.04-.73,17.78,1.68,26.66,2.57,.9,.09,1.79,.28,2.7,.35,4.21,.34,4.02,.35,4.48,4.43,.56,4.93,1.74,9.8,2.19,14.74,.66,7.2,.89,14.44,1.34,21.67,.65,10.38,1.35,20.76,2.02,31.14,.04,.61,0,1.23,0,2.48-3.03-.25-5.97-.34-8.85-.77-5.99-.89-5.94-.97-6.03-7.15-.05-3.35-.2-6.7-.52-10.02-.06-.67-1.06-1.78-1.65-1.8-4.78-.15-9.56-.08-14.74-.08,.15,2.47,.29,4.69,.41,6.91,.14,2.53,.21,5.07,.42,7.59,.14,1.68-.64,2.32-2.18,2.32-5.23,0-10.47,0-15.45,0,2.07-18.89,4.19-38.21,6.34-57.79Zm28.68,.67c-3.93,0-7.26,.09-10.59-.02-4.3-.14-4.59-.24-4.97,3.87-.71,7.73-1.04,15.5-1.52,23.25-.11,1.81,.72,2.69,2.6,2.56,3.43-.23,6.86-.55,10.29-.58,2.23-.02,2.75-1.18,2.81-3.02,.12-3.8,.21-7.6,.41-11.4,.26-4.74,.63-9.47,.98-14.67Z"></path><path class="cls-1" d="M489.12,59.01c-.75-18.57-1.5-37.14-2.28-56.47,4.55-.05,8.47-.14,12.38-.07,.42,0,1.05,.94,1.17,1.53,.22,1.05,.18,2.16,.18,3.25,0,16.49,.05,32.99-.07,49.48-.03,3.32-.7,6.64-1.15,9.95-.25,1.88-.99,3.76-.89,5.61,.16,3.01-1.14,4.08-3.92,4.05-3.08-.03-6.16,.1-9.24-.03-.67-.03-1.7-.74-1.9-1.35-1.43-4.46-2.85-8.95-3.96-13.5-1.13-4.63-1.94-9.33-2.81-14.02-.9-4.8-1.7-9.62-2.58-14.42-.23-1.28-.62-2.53-.93-3.79-.38,.03-.75,.06-1.13,.09,0,3.79,.02,7.58,0,11.37-.07,11.32-.2,22.64-.21,33.96,0,1.88-.99,2.14-2.39,2-3.4-.35-6.8-.78-10.39-1.2-.05-.58-.16-1.27-.16-1.97-.04-11.85-.06-23.7-.09-35.56-.02-10.42,.04-20.84-.14-31.26-.04-2.54,.78-3.44,3.21-3.31,4.07,.23,8.16,.27,12.21,.62,.74,.06,1.76,1.14,1.99,1.94,1.41,4.77,2.34,9.69,3.97,14.38,2.86,8.22,3.14,16.87,4.79,25.28,.02,.09,0,.18,.03,.27,1.18,4.41,2.37,8.82,3.56,13.23,.25,0,.5-.02,.75-.03Z"></path><path class="cls-1" d="M555.37,23.67c-.55,4.46-1.22,8.91-1.59,13.38-.19,2.32,.24,4.67,.27,7.02,.05,4.14,.16,8.28-.02,12.42-.19,4.33-.87,8.64-1.04,12.97-.21,5.53-2.79,8.31-8.32,8.59-4.97,.25-10.01,1.27-14.88,.72-5.39-.61-10.73-2.31-15.89-4.12-3.06-1.08-4.01-4.31-4.22-7.4-.28-4.15-.36-8.32-.48-12.48-.31-10.85-.69-21.69-.83-32.54-.04-3.27,.62-6.55,.98-9.83,.04-.35,.15-.75,.37-1.01,3.83-4.7,7.58-9.53,14.28-10.21,4.14-.42,8.29-1.19,12.43-1.15,3.76,.03,7.51,.88,11.25,1.45,2.48,.38,3.77,1.97,4.74,4.28,2.43,5.78,2.69,11.78,2.94,17.94Zm-12.21,17.68c-.11,0-.22,0-.33,0,0-5.71,.17-11.43-.06-17.13-.15-3.67-1.04-7.56-4.86-9.03-3.31-1.27-6.99-1.74-10.55-2.09-3.41-.33-4.57,.74-5.01,4.22-.39,3.02-.55,6.1-.48,9.15,.26,10.69,.63,21.37,1.03,32.05,.13,3.56,1.68,5.76,4.69,6.53,2.71,.69,5.49,1.23,8.28,1.46,4.99,.43,6.99-1.12,7.22-6.14,.29-6.33,.07-12.68,.07-19.02Z"></path><path class="cls-1" d="M374.48,24.47V56.6c-4.31-2.37-8.07-4.91-12.18-6.59-4.05-1.65-8.46-2.44-13.13-3.72v15.14c6.26,0,12.72,.04,19.19-.01,6.82-.05,6.37-1.95,6.74,6.22,.16,3.42,.03,6.85,.03,10.47-2.32,0-4.27,0-6.23,0-8.33,0-16.66,0-25,.05-2.68,.02-3.68-1.3-3.73-3.85-.16-8.87-.59-17.74-.56-26.6,.01-3.94,1.18-7.88,1.26-11.82,.16-7.78-.08-15.58-.14-23.37-.02-2.36,.08-4.71,.02-7.07-.05-1.8,.62-2.74,2.51-2.66,3.71,.15,7.42,.29,11.12,.39,6.43,.19,12.86,.34,19.29,.53,1.05,.03,2.1,.13,3.22,.2-.53,4.6-1.03,8.89-1.57,13.56-1.19,.07-2.5,.23-3.81,.22-5.71-.02-11.42-.1-17.13-.12-2.48-.01-3.45,.97-3.56,3.75-.22,5.5-1.09,10.97-1.69,16.45-.05,.42-.07,.85-.16,2,8.61-5.16,16.74-10.04,25.49-15.29Z"></path><path class="cls-1" d="M390.21,78.65c-6.6-.29-6.58-.29-6.64-6.87-.03-2.8-.16-5.6-.25-8.41-.05-1.62,.63-2.34,2.31-2.06,2.23,.36,4.47,.8,6.72,.91,5.76,.29,11.52,.34,17.13-1.41,3.32-1.04,4.69-3.53,5.19-6.65,.98-6.12-.05-7.88-5.92-9.9-2.21-.76-4.57-1.07-6.82-1.76-4.03-1.24-8.11-2.41-12.01-3.99-3.06-1.23-3.77-4.59-4.11-7.24-.72-5.61-.73-11.33-.76-17.01-.01-2.03,.7-4.07,1.13-6.1,.53-2.47,2.11-3.61,4.63-3.74,5.78-.3,11.56-.76,17.35-1.03,6.15-.29,12.32-.37,18.47-.69,2.06-.11,3.13,.48,3,2.62-.22,3.69-.39,7.39-.78,11.07-.19,1.83-1.3,2.43-3.28,1.99-9.72-2.17-19.61-1.98-29.49-1.87-2.72,.03-5.73,4.01-5.78,7.3-.07,4.61,2,7.09,6.59,7.46,4.42,.36,8.94,.03,13.28,.8,4.2,.74,8.36,2.2,12.24,3.97,1.33,.61,2.49,3.11,2.53,4.77,.21,7.39,.02,14.8-.12,22.2-.03,1.43-.42,2.87-.76,4.27-1.5,6.1-3.85,8.19-10.12,8.97-2.52,.31-5.05,.49-7.58,.72-2.7,.24-5.4,.44-8.1,.72-2.69,.28-5.37,.65-8.05,.98Z"></path><path class="cls-1" d="M296.83,2.34c4.25,0,8.48-.04,12.71,.01,3.08,.04,6.16,.34,9.23,.26,3.03-.08,5.38,1.14,6.94,3.51,1.65,2.51,2.99,5.26,4.25,8,3.59,7.82,4.61,16.12,4.11,24.63-.22,3.7-.55,7.41-1.1,11.07-.77,5.04-7.67,11.37-12.77,11.74-3.7,.27-7.42,.28-11.14,.27-1.64,0-2.29,.59-2.23,2.22,.14,3.71,.12,7.42,.32,11.12,.08,1.44-.19,2.06-1.76,2.33-6.81,1.15-8.99-.43-9.03-7.3-.07-11.05,.07-22.09,.12-33.14,.05-10.96,.08-21.91,.13-32.87,0-.44,.1-.87,.22-1.86Zm12.06,24.57s-.08,0-.11,.01c.32,6.78,.67,13.56,.95,20.34,.14,3.36,.81,4,4.1,3.63,.72-.08,1.44-.15,2.16-.26,4.96-.72,7.37-3.94,6.92-8.88-.39-4.23-.8-8.48-.74-12.71,.06-3.89-.76-7.59-2.98-10.52-1.86-2.46-4.68-4.36-7.4-5.95-1.65-.96-3.01,.02-2.93,2.37,.13,3.98,.04,7.97,.04,11.96Z"></path><path class="cls-1" d="M161.26,1.75v14.79c-8.13,1.02-16.08,2.11-24.06,2.98-2.87,.31-4.83,1.34-5.39,4.3-.64,3.34-1.57,6.67-1.78,10.04-.31,4.88,.12,9.8-.14,14.68-.26,4.79,2.76,8.61,8.04,9.06,5.77,.49,11.56,.84,17.34,1.23,.89,.06,1.78,0,3.07,0v18.98c-2.12,0-4.53,.17-6.9-.04-4.78-.41-17.12,.31-21.87-.38-6.56-.96-9.91-6.59-10.56-13.3-.59-6.01-.56-12.08-.64-18.13-.07-5.42,.04-10.84,.15-16.26,.04-1.71,.48-3.42,.5-5.13,.05-5.56,2.14-12.69,6.65-15.65,6.66-4.38,17.96-6.53,25.82-7.14,3.15-.24,6.33-.04,9.78-.04Z"></path><path class="cls-1" d="M450.68,77.82c-4.55-.59-8.55-1.03-12.51-1.72-.66-.12-1.57-1.26-1.64-2-.58-5.85-1.31-11.72-1.34-17.58-.03-6.12,.72-12.25,1.03-18.38,.28-5.69,.49-11.39,.61-17.08,.1-5.07,.09-10.15-.01-15.22-.04-1.9,.67-2.59,2.52-2.55,3.34,.07,6.69,.02,9.81,.02,.51,24.69,1.02,49.14,1.55,74.51Z"></path><path class="cls-1" d="M0,252.53c5.3-15.79,10.06-31.77,12.23-48.31,1.1-8.41,1.47-17.02,1.15-25.5-.72-19.13,3.91-37.37,8.2-55.72,1.97-8.43,7.23-12.73,15.72-14.22,17.56-3.07,35.27-4.12,53.04-4.68,9.61-.3,19.23-.83,28.82-.46,5.61,.22,11.17,1.95,16.72,3.14,.56,.12,1.28,1.22,1.3,1.88,.3,15.86,.44,31.71,.83,47.57,.07,3.01-.98,4.06-3.76,4.7-8.47,1.95-16.99,2.41-25.65,2.04-8.7-.37-17.41-.23-26.12-.37-3.99-.06-7.97-.37-11.96-.37-6.51,0-11.39,2.97-14.86,8.44-4.14,6.53-6.12,13.9-8.2,21.2-2.83,9.93-4.21,20.09-5.36,30.39-1.35,12.07-4.64,23.96-7.51,35.82-2.33,9.61-2.59,19,1.31,28.2,2.9,6.83,5.94,13.6,9.15,20.28,3.31,6.88,8.93,11.56,15.59,14.99,4.51,2.32,9.21,4.26,13.72,6.58,9.06,4.65,18.94,5.52,28.8,5.9,13.86,.54,27.75,.46,41.62,.64,.44,0,.89,0,1.48,0,2.14,6.58,3.69,13.17,3.82,19.99,.17,9.34,.17,18.68,.14,28.02-.02,4.72-.84,5.41-5.54,5.45-18.86,.13-37.74,.69-56.58,.25-13.47-.32-26.93-1.76-40.35-3.17-4.24-.44-8.35-2.29-12.45-3.7-1.1-.38-2.14-1.36-2.86-2.33-9.81-12.97-18.76-26.6-25.32-41.42-3.48-7.85-4.28-16.93-5.88-25.53-.74-3.97-.45-8.13-.69-12.2-.1-1.7-.36-3.38-.54-5.07,0-14.15,0-28.29,0-42.44Z"></path><path class="cls-1" d="M140.18,297.82l.48-87.7-2.47-12.33c-.96-4.79-5.15-8.25-10.04-8.28-10.68-.05-28.23-.05-32.42,.51-6.13,.82-20.67,17.17-20.67,22.89s-12.95,41.64-8.36,53.09c4.59,11.45,7.8,23.92,20.05,26.37,12.25,2.45,19.91,13.9,26.8,13.9,3.94,0,12.05-.05,18.29-.09,4.6-.03,8.33-3.76,8.35-8.36Z"></path></g></g></svg>