<svg xmlns="http://www.w3.org/2000/svg" id="Layer_2" viewBox="0 0 41.98 42.31"><defs><style>.cls-1{fill:#567a79;stroke-width:0px;}</style></defs><g id="Layer_1-2"><path class="cls-1" d="m18.39,5.63v14.07l-12,7.73c-.78-1.88-1.2-3.94-1.2-6.1,0-7.89,5.72-14.45,13.2-15.71m0,31.41c-3.65-.61-6.89-2.49-9.24-5.17l9.24-5.96v11.13Zm5.19-11.06l9.2,5.93c-2.35,2.66-5.57,4.52-9.2,5.13v-11.06Zm0-20.35c7.48,1.25,13.2,7.82,13.2,15.71,0,2.18-.44,4.26-1.23,6.15l-11.97-7.72V5.63Zm-2.6,36.69c11.57,0,20.99-9.49,20.99-21.16S32.56,0,20.99,0,0,9.49,0,21.16s9.42,21.16,20.99,21.16"></path></g></svg>